<svg width="20" height="20" viewBox="0 0 20 20" fill="none" xmlns="http://www.w3.org/2000/svg">
<path fill-rule="evenodd" clip-rule="evenodd" d="M10 7.59998C8.6745 7.59998 7.59998 8.6745 7.59998 10C7.59998 11.3255 8.6745 12.4 10 12.4C11.3255 12.4 12.4 11.3255 12.4 10C12.4 8.6745 11.3255 7.59998 10 7.59998ZM9.20004 10C9.20004 9.55816 9.55816 9.20004 10 9.20004C10.4418 9.20004 10.8 9.55816 10.8 10C10.8 10.4418 10.4418 10.8 10 10.8C9.55816 10.8 9.20004 10.4418 9.20004 10Z" fill="white"/>
<path fill-rule="evenodd" clip-rule="evenodd" d="M10 2C10.4418 2 10.8 2.35812 10.8 2.79996V3.64947C13.695 4.0104 15.9895 6.30503 16.3505 9.20004H17.2C17.6419 9.20004 18 9.55816 18 10C18 10.4418 17.6419 10.8 17.2 10.8H16.3505C15.9896 13.695 13.695 15.9895 10.8 16.3505V17.2C10.8 17.6419 10.4418 18 10 18C9.55816 18 9.20004 17.6419 9.20004 17.2V16.3505C6.30499 15.9896 4.0105 13.695 3.64947 10.8H2.79996C2.35812 10.8 2 10.4418 2 10C2 9.55816 2.35812 9.20004 2.79996 9.20004H3.64947C4.0104 6.30499 6.30503 4.0105 9.20004 3.64947V2.79996C9.20004 2.35812 9.55816 2 10 2ZM5.26647 10.7999H6.00002C6.44186 10.7999 6.80012 10.4417 6.80012 9.9999C6.80012 9.55805 6.44186 9.19994 6.00002 9.19994H5.26647C5.60357 7.18992 7.19009 5.60333 9.20011 5.2663V5.99985C9.20011 6.44169 9.55823 6.79995 10.0001 6.79995C10.4419 6.79995 10.8 6.44169 10.8 5.99985V5.2663C12.8101 5.6034 14.3963 7.18992 14.7337 9.19994H14.0001C13.5583 9.19994 13.2 9.55805 13.2 9.9999C13.2 10.4417 13.5583 10.7999 14.0001 10.7999H14.7337C14.3964 12.8099 12.8101 14.3961 10.8 14.7335V13.9999C10.8 13.5581 10.4419 13.1999 10.0001 13.1999C9.55823 13.1999 9.20011 13.5581 9.20011 13.9999V14.7335C7.19009 14.3963 5.6035 12.8099 5.26647 10.7999Z" fill="white"/>
</svg>
