<svg width="14" height="12" viewBox="0 0 14 12" fill="none" xmlns="http://www.w3.org/2000/svg">
<path d="M13.8777 5.12472C13.5966 4.52829 13.0192 4.51742 12.4399 4.52875C11.5428 4.54672 10.6447 4.52875 9.74775 4.52754C9.63536 4.52754 9.52297 4.51404 9.42132 4.50729C9.40781 4.45422 9.39623 4.43517 9.39973 4.41877C9.41927 4.32375 9.43723 4.22788 9.46545 4.13538C9.67685 3.44368 9.76729 2.71386 9.61812 2.0007C9.50573 1.46493 9.31242 0.76598 8.90725 0.371169C8.30153 -0.219736 6.93606 -0.15111 6.94199 0.911908C6.94464 1.36871 6.952 1.8261 6.94826 2.28231C6.94717 2.39506 6.93704 2.52578 6.88157 2.61754C6.39124 3.43044 5.89826 4.24143 5.3871 5.0413C5.23467 5.27898 5.05187 5.41996 4.73047 5.43441L5.3093 11.2938C5.56773 11.5033 5.84316 11.6001 6.18009 11.5968C7.87365 11.5788 9.56758 11.5911 11.2612 11.5884C12.2094 11.5867 12.8803 10.8072 12.7576 9.87199C12.7441 9.769 12.783 9.62803 12.85 9.54975C13.1383 9.21295 13.2081 8.83333 13.1575 8.40632C13.1435 8.28464 13.1817 8.12365 13.2568 8.03006C13.5097 7.71579 13.675 7.36031 13.5559 6.97948C13.4731 6.71527 13.5523 6.58467 13.7015 6.40426C14.0169 6.02152 14.0935 5.58376 13.8776 5.1248L13.8777 5.12472Z" fill="white"/>
<path d="M0.649147 5.18584C-0.098398 5.18584 0.00483515 6.45048 0.00483515 6.45048C0.0366695 6.85603 0.0625984 7.22997 0.0898515 7.60404C0.13254 8.18976 0.175469 8.77461 0.219365 9.36033C0.266879 9.99909 0.307518 10.6394 0.376493 11.2765C0.418339 11.6612 0.572574 11.7733 0.95471 11.7733C2.13251 11.7746 3.31067 11.7733 4.48884 11.7733C4.67817 11.7733 4.81107 11.7666 4.90668 11.7374L4.26154 5.20352C3.05901 5.16735 1.85359 5.18592 0.649302 5.18592L0.649147 5.18584Z" fill="white"/>
</svg>
